# xmcd
#
# Track frame offsets:
#	150
#	17933
#	38563
#	57000
#	74135
#	93068
#	106951
#	147540
#	174250
#	193853
#	224444
#
# Disc length: 3978 seconds
#
# Revision: 0
# Processed by: cddbd v1.5.2PL0 Copyright (c) Steve Scherf et al.
# Submitted via: EasyCDDAExtractor 16.1.0.1
#
DISCID=9e0f880b
DTITLE=Sameli Rajala - The Sauce
DYEAR=1900
DGENRE=
TTITLE0=Buzz Me Baby (Waiting On Your Call)
TTITLE1=You Just Gotta Cry
TTITLE2=Whirlygig
TTITLE3=It’s All My Fault
TTITLE4=Trying To Get You Off My Mind
TTITLE5=Saucefield
TTITLE6=World In Your Soul
TTITLE7=That Old Choking Kind
TTITLE8=Can’t You See?
TTITLE9=Taildrag
TTITLE10=So Glad You’re Here
EXTD=
EXTT0=
EXTT1=
EXTT2=
EXTT3=
EXTT4=
EXTT5=
EXTT6=
EXTT7=
EXTT8=
EXTT9=
EXTT10=
PLAYORDER=
